<mxfile host="Electron" agent="Mozilla/5.0 (X11; Linux x86_64) AppleWebKit/537.36 (KHTML, like Gecko) draw.io/24.7.5 Chrome/126.0.6478.183 Electron/31.3.0 Safari/537.36" version="24.7.5">
  <diagram name="Pagina-1" id="iudTJHdZUR0WALGNm4tG">
    <mxGraphModel dx="1376" dy="878" grid="1" gridSize="10" guides="1" tooltips="1" connect="1" arrows="1" fold="1" page="1" pageScale="1" pageWidth="850" pageHeight="1100" math="0" shadow="0">
      <root>
        <mxCell id="0" />
        <mxCell id="1" parent="0" />
        <mxCell id="24rtrC5T7VIcpPfLtJvz-14" value="&lt;font style=&quot;font-size: 12px;&quot; face=&quot;Helvetica&quot;&gt;&amp;lt;&amp;lt;rmi&amp;gt;&amp;gt;&lt;/font&gt;" style="edgeStyle=orthogonalEdgeStyle;rounded=0;orthogonalLoop=1;jettySize=auto;html=1;endArrow=none;endFill=0;align=right;labelPosition=left;verticalLabelPosition=middle;verticalAlign=middle;" edge="1" parent="1" source="24rtrC5T7VIcpPfLtJvz-7" target="24rtrC5T7VIcpPfLtJvz-8">
          <mxGeometry relative="1" as="geometry" />
        </mxCell>
        <mxCell id="24rtrC5T7VIcpPfLtJvz-7" value="&lt;b&gt;&lt;br&gt;&lt;br&gt;&lt;br&gt;ClimateMonitoringClient&lt;/b&gt;" style="verticalAlign=top;align=center;spacingTop=8;spacingLeft=2;spacingRight=12;shape=cube;size=10;direction=south;html=1;whiteSpace=wrap;" vertex="1" parent="1">
          <mxGeometry x="330" y="430" width="180" height="120" as="geometry" />
        </mxCell>
        <mxCell id="24rtrC5T7VIcpPfLtJvz-8" value="&lt;b&gt;&lt;br&gt;&lt;br&gt;&lt;br&gt;ClimateMonitoringServer&lt;/b&gt;" style="verticalAlign=top;align=center;spacingTop=8;spacingLeft=2;spacingRight=12;shape=cube;size=10;direction=south;html=1;whiteSpace=wrap;" vertex="1" parent="1">
          <mxGeometry x="330" y="220" width="180" height="120" as="geometry" />
        </mxCell>
        <mxCell id="24rtrC5T7VIcpPfLtJvz-10" value="&lt;b&gt;MySQL&lt;/b&gt;&lt;div&gt;&lt;b&gt;DB&lt;/b&gt;&lt;/div&gt;" style="shape=cylinder3;whiteSpace=wrap;html=1;boundedLbl=1;backgroundOutline=1;size=15;" vertex="1" parent="1">
          <mxGeometry x="640" y="235" width="60" height="80" as="geometry" />
        </mxCell>
        <mxCell id="24rtrC5T7VIcpPfLtJvz-15" style="edgeStyle=orthogonalEdgeStyle;rounded=0;orthogonalLoop=1;jettySize=auto;html=1;exitX=0;exitY=0;exitDx=55;exitDy=0;exitPerimeter=0;entryX=0;entryY=0.5;entryDx=0;entryDy=0;entryPerimeter=0;endArrow=none;endFill=0;" edge="1" parent="1" source="24rtrC5T7VIcpPfLtJvz-8" target="24rtrC5T7VIcpPfLtJvz-10">
          <mxGeometry relative="1" as="geometry" />
        </mxCell>
      </root>
    </mxGraphModel>
  </diagram>
</mxfile>
